<svg xmlns:xlink="http://www.w3.org/1999/xlink" xmlns="http://www.w3.org/2000/svg" viewBox="0 0 24 24" role="img" class="sc-bdVaJa src___StyledBox-sc-fochin-0 cJyDwH"><defs><symbol id="SvgMessageoutline"><path d="M18 12h-7.2a1.13 1.13 0 00-1.2 1.2 1.13 1.13 0 001.2 1.2H18a1.2 1.2 0 000-2.4zM6 7.2h12A1.13 1.13 0 0019.2 6 1.13 1.13 0 0018 4.8H6a1.2 1.2 0 000 2.4z"></path><path d="M21.6 0H2.4A2.41 2.41 0 000 2.4v14.4a2.41 2.41 0 002.4 2.4h16.8L24 24V2.4A2.41 2.41 0 0021.6 0zm0 18.24l-1.44-1.44H2.4V2.4h19.2z"></path><path d="M6 10.8h12a1.13 1.13 0 001.2-1.2A1.13 1.13 0 0018 8.4H6a1.2 1.2 0 100 2.4z"></path></symbol></defs><use xlink:href="#SvgMessageoutline" fill="#1A1A1A"></use></svg>